<?xml version="1.0" encoding="UTF-8"?><svg id="Capa_2" data-name="Capa 2" xmlns="http://www.w3.org/2000/svg" viewBox="0 0 133.35 49.19"><defs><style>.cls-1 {
        fill: #1f9caa;
        stroke-width: 0px;
      }</style></defs><g id="Capa_1-2" data-name="Capa 1"><g><path class="cls-1" d="m12.25,8.35c-.08-.32-.32-.59-.63-.71L.55,3.34c-.36-.14-.69.26-.49.59l13.14,21.88c.29.48.38,1.07.24,1.61l-5.46,21.26c-.12.45.5.71.74.31l9.39-15.61c.2-.33.26-.73.17-1.11l-6.02-23.92Z"/><path class="cls-1" d="m19.38,12.65l6.11,7.25c.55.65,1.39.99,2.24.89l8.85-1L12.22,1.14c-.3-.23-.71.05-.62.41l7.77,29.61,4.35-7.83c.42-.76.43-1.68.02-2.44l-4.37-8.23Z"/><path class="cls-1" d="m34.05,2.48c-.08-.38-.55-.51-.81-.23l-7.28,7.84,11.44,8.91-3.35-16.52Z"/><path class="cls-1" d="m45.21.48c.17-.21-.01-.52-.28-.48l-9.84,1.58,1.89,9.22L45.21.48Z"/><path class="cls-1" d="m31.78,26.75h-4.1l-.7,3.99h-1.95l-.58,3.35h1.92l-1.37,7.77c-.08.45-.12.9-.12,1.37,0,2.43,1.46,3.64,4.37,3.64h2.59l.61-3.44h-1.92c-.52,0-.9-.08-1.12-.25-.22-.16-.33-.44-.33-.83,0-.19,0-.35.03-.47l1.37-7.8h3.61l.58-3.35h-3.58l.7-3.99Z"/><path class="cls-1" d="m48.53,31.33c-1.08-.57-2.3-.86-3.68-.86-1.84,0-3.52.44-5.02,1.31-1.5.87-2.69,2.06-3.55,3.57-.86,1.5-1.3,3.17-1.3,4.99,0,1.34.29,2.52.87,3.55.58,1.03,1.4,1.82,2.46,2.39,1.06.56,2.28.84,3.65.84,1.84,0,3.53-.43,5.05-1.3,1.52-.86,2.72-2.04,3.6-3.54.87-1.49,1.31-3.16,1.31-5.01,0-1.34-.3-2.52-.89-3.55-.59-1.03-1.43-1.83-2.5-2.4Zm-1.5,9.21c-.45.93-1.07,1.68-1.86,2.24-.8.56-1.68.84-2.65.84s-1.79-.31-2.4-.93c-.61-.62-.92-1.5-.92-2.65,0-1.05.21-2.04.64-2.98.43-.94,1.02-1.69,1.79-2.26.77-.56,1.64-.84,2.64-.84s1.81.32,2.46.95c.65.63.98,1.53.98,2.69,0,1.03-.22,2.01-.67,2.94Z"/><path class="cls-1" d="m63.45,25.56c-2.02,0-3.8.6-5.33,1.81-1.53,1.2-2.53,2.97-3,5.3h3.93c.25-1.16.69-2.06,1.31-2.69.62-.63,1.41-.95,2.36-.95.82,0,1.42.19,1.82.58.4.39.6.93.6,1.63,0,.27-.03.55-.09.84-.17,1.01-.71,2.05-1.62,3.12-.9,1.07-1.97,2.1-3.2,3.1-1.23,1-2.93,2.29-5.08,3.86l-1.92,1.4-.52,3.03h14.35l.61-3.38h-8.59c1.94-1.42,3.52-2.63,4.75-3.65,1.22-1.02,2.36-2.2,3.41-3.54,1.05-1.34,1.7-2.74,1.95-4.19.08-.39.12-.82.12-1.31,0-1.49-.49-2.69-1.48-3.6-.99-.9-2.45-1.35-4.37-1.35Z"/><path class="cls-1" d="m77.57,30.07c.15-.91.47-1.54.93-1.89.47-.35,1.18-.51,2.15-.49l.58-3.44c-2.25-.06-4.02.38-5.3,1.31-1.28.93-2.1,2.39-2.45,4.37l-.15.81h-1.86l-.58,3.35h1.86l-2.27,12.78h4.11l2.27-12.78h2.82l.58-3.35h-2.82l.12-.67Z"/><path class="cls-1" d="m94.17,33.04c-.39-.74-1-1.35-1.82-1.83-.82-.48-1.84-.73-3.04-.73-1.38,0-2.69.34-3.93,1.02-1.24.68-2.3,1.65-3.16,2.91-.86,1.26-1.44,2.71-1.73,4.34-.12.66-.17,1.29-.17,1.89,0,1.3.25,2.44.76,3.42.5.98,1.21,1.74,2.13,2.27.91.53,1.96.8,3.14.8s2.31-.25,3.33-.74c1.02-.5,1.85-1.12,2.49-1.88l-.44,2.36h4.11l2.85-16.13h-4.11l-.41,2.3Zm-1.02,5.76c-.17.97-.52,1.81-1.03,2.53-.51.72-1.13,1.27-1.85,1.64-.72.38-1.46.57-2.21.57-1.01,0-1.84-.33-2.5-1-.66-.67-.99-1.59-.99-2.75,0-.33.03-.68.09-1.05.17-.97.52-1.81,1.05-2.52.52-.71,1.14-1.25,1.85-1.62.71-.37,1.44-.55,2.2-.55,1.01,0,1.85.32,2.52.96.67.64,1,1.53,1,2.68,0,.23-.04.6-.12,1.11Z"/><path class="cls-1" d="m106.03,35.21c.82-.84,1.82-1.27,2.98-1.27.81,0,1.47.2,1.95.6.48.4.79.95.9,1.64h4.4c-.14-1.82-.77-3.23-1.91-4.22-1.14-.99-2.7-1.48-4.7-1.48-1.55,0-2.99.35-4.32,1.03-1.33.69-2.44,1.66-3.33,2.91-.89,1.25-1.48,2.71-1.78,4.38-.12.66-.17,1.29-.17,1.89,0,1.98.61,3.55,1.82,4.7,1.21,1.15,2.84,1.73,4.88,1.73s3.69-.51,5.2-1.54c1.5-1.03,2.64-2.42,3.39-4.16h-4.4c-.78,1.48-1.98,2.21-3.61,2.21-.97,0-1.73-.3-2.27-.89-.54-.59-.81-1.44-.81-2.55,0-.39.05-.85.15-1.4.27-1.55.82-2.75,1.64-3.6Z"/><path class="cls-1" d="m124.97,24.59c-.39-.37-.89-.55-1.51-.55-.8,0-1.49.28-2.08.83-.59.55-.89,1.22-.89,1.99,0,.56.19,1.03.58,1.4.39.37.9.55,1.54.55.8,0,1.48-.28,2.07-.83.58-.55.87-1.22.87-1.99,0-.56-.19-1.03-.58-1.4Z"/><polygon class="cls-1" points="117.34 46.87 121.45 46.87 124.3 30.74 120.2 30.74 117.34 46.87"/><polygon class="cls-1" points="129.25 25.32 125.44 46.87 129.54 46.87 133.35 25.32 129.25 25.32"/><polygon class="cls-1" points="85.37 27.23 99.1 27.23 99.76 23.95 86.07 23.95 85.37 27.23"/></g></g></svg>